<svg width="262" height="247" viewBox="0 0 262 247" fill="none" xmlns="http://www.w3.org/2000/svg">
<g clip-path="url(#clip0_592_251)">
<path d="M210.005 163.463C209.991 138.329 209.741 113.182 209.45 88.0491C209.381 81.406 209.436 74.7352 209.214 68.092C208.965 60.577 204.169 54.9995 200.288 48.7439C193.01 37.0215 185.719 25.2853 178.442 13.563C174.713 7.54264 172.162 0.650394 164.33 0.373596C161.225 0.262878 158.106 0.373596 155.001 0.373596H76.0036C54.2546 0.359757 28.2362 -3.52925 11.7823 14.0612C-2.66158 29.5065 0.235517 50.6815 0.235517 70.0573V152.557C0.235517 169.76 -0.15261 187.018 0.235517 204.207C0.651368 222.849 12.6833 238.904 30.4817 244.647C38.3413 247.18 46.6999 246.682 54.8368 246.682H134.056C157.192 246.682 184.915 250.709 200.565 229.368C206.012 221.936 208.022 213.272 209.214 204.332C210.906 190.921 210.046 176.915 210.032 163.435L210.005 163.463ZM183.82 53.7263C185.594 56.5911 188.186 59.7328 190.127 62.9298C188.048 63.0128 185.691 62.8052 184.735 62.8052H152.894C151.425 62.8052 145.132 63.428 144.175 62.1409C142.235 59.539 153.172 45.0071 154.489 42.7928C157.289 38.1011 160.089 33.4232 162.889 28.7315C163.388 27.9011 164.344 25.922 165.439 24.1505C168.752 29.4788 172.051 34.7933 175.364 40.1217C178.178 44.6612 181.006 49.2006 183.82 53.7401V53.7263ZM165.55 230.101C161.184 230.226 156.79 230.101 152.423 230.101H89.6158C74.5204 230.101 59.3973 230.364 44.3019 230.101C32.3947 229.894 21.2637 223.002 17.8399 211.182C16.5923 206.892 16.8696 202.422 16.8696 198.007V81.3921C16.8696 68.6871 16.6478 55.9683 16.8696 43.2633C17.0775 31.9146 24.0083 22.1022 34.9036 18.4208C40.2265 16.6216 45.8128 16.9814 51.3436 16.9814H151.966C149.983 19.9708 148.195 23.2232 146.31 26.3787C141.514 34.4058 136.399 42.3084 131.894 50.5016C124.173 64.549 131.949 77.6139 147.849 78.1951C156.623 78.5135 165.467 78.1951 174.241 78.1951C180.285 78.1951 186.856 78.7487 192.844 77.7938C192.788 79.0532 192.733 80.2711 192.747 81.406C192.802 86.6928 192.872 91.9796 192.927 97.2665C193.038 107.425 193.135 117.597 193.204 127.756C193.329 144.543 193.44 161.331 193.343 178.105C193.301 186.797 193.648 195.709 192.553 204.359C190.709 218.268 181.255 229.645 165.55 230.088V230.101Z" fill="url(#paint0_linear_592_251)"/>
<path d="M105.127 65.5317L46.5338 98.5536V142.246V161.027V164.597L105.127 197.619L163.721 164.597V155.269V142.246V98.5536L105.127 65.5317Z" fill="#0F142C"/>
<path d="M105.072 199.557L46.4367 165.774V141.374H62.7519V156.363L105.072 180.749L147.378 156.363V141.374H163.693V165.774L105.072 199.557Z" fill="#F29224"/>
<path d="M62.7519 123.465H46.4367V98.18L105.072 64.3831L163.693 98.18V118.4H147.378V107.577L105.072 83.1914L62.7519 107.577V123.465Z" fill="#F29224"/>
<path d="M111.462 148.502H90.5723L76.3364 131.16H97.2259L111.462 148.502Z" fill="#F29224"/>
<path d="M139.532 111.978L111.753 148.502H90.8635L118.642 111.978H139.532Z" fill="#FFFFFB"/>
<path opacity="0.72" d="M186.301 189.246C207.982 189.246 225.558 171.698 225.558 150.052C225.558 128.405 207.982 110.857 186.301 110.857C164.621 110.857 147.045 128.405 147.045 150.052C147.045 171.698 164.621 189.246 186.301 189.246Z" fill="#0F122B"/>
<path d="M217.088 150.052C216.686 166.826 203.407 180.79 186.301 180.79C169.196 180.79 155.514 166.84 155.514 150.052C155.514 133.264 169.487 119.286 186.301 119.313C203.116 119.341 216.686 133.25 217.088 150.052C217.351 160.93 234.304 160.971 234.055 150.052C233.584 130.15 221.746 112.629 203.018 105.432C184.291 98.2353 162.265 104.283 149.609 119.659C136.954 135.036 134.999 157.193 145.243 174.368C155.487 191.544 175.517 200.346 195.103 196.872C217.781 192.858 233.5 172.597 234.041 150.066C234.304 139.16 217.338 139.174 217.074 150.066L217.088 150.052Z" fill="#FF9C0D"/>
<path d="M207.329 190.035L247.542 241.353C254.515 250.252 266.879 237.741 259.976 228.939L219.763 177.621C212.791 168.722 200.426 181.233 207.329 190.035Z" fill="#FF9C0D"/>
</g>
<defs>
<linearGradient id="paint0_linear_592_251" x1="17.826" y1="123.507" x2="189.961" y2="123.507" gradientUnits="userSpaceOnUse">
<stop stop-color="#E98924"/>
<stop offset="1" stop-color="#F8BB5D"/>
</linearGradient>
<clipPath id="clip0_592_251">
<rect width="262" height="247" fill="white"/>
</clipPath>
</defs>
</svg>
