<svg width="285" height="270" viewBox="0 0 285 270" fill="none" xmlns="http://www.w3.org/2000/svg">
<g filter="url(#filter0_d_579_10)">
<path d="M89.1251 146.145C60.5625 163.219 48.1987 197.425 50.2717 229.589C50.7307 236.75 61.9395 236.795 61.4805 229.589C59.6741 201.39 69.5207 170.912 94.7814 155.807C100.971 152.108 95.3292 142.432 89.1251 146.145Z" fill="#F6AE4C"/>
<path d="M162.02 157.552C175.627 158.78 184.112 177.023 188.613 187.808C193.366 199.185 198.223 213.034 197.468 225.58C196.964 234.028 210.128 233.998 210.616 225.58C211.549 209.734 205.108 192.261 198.637 178.147C191.604 162.819 180.277 146.042 162.02 144.399C153.595 143.645 153.639 156.783 162.02 157.537V157.552Z" fill="#F6AE4C"/>
<path d="M94.0855 148.158C86.7117 162.39 81.7365 177.763 78.3902 193.401C75.873 205.119 73.6519 217.561 74.3183 229.59C74.4811 232.608 76.7466 235.182 79.9153 235.182H181.491C184.423 235.182 187.221 232.623 187.088 229.59C185.903 202.041 175.642 172.999 164.33 148.158C161.354 141.603 151.685 147.285 154.661 153.809C160.865 167.45 165.618 181.742 169.512 196.197C172.429 207.042 175.391 218.331 175.879 229.59L181.476 223.997H79.9301L85.5271 229.59C84.1205 204.497 92.3383 175.854 103.754 153.809C107.056 147.418 97.4023 141.751 94.0855 148.158V148.158Z" fill="#F6AE4C"/>
<path d="M166.121 117.147C165.648 138.215 148.901 155.792 127.446 155.792C105.99 155.792 88.7698 138.215 88.7698 117.147C88.7698 96.079 106.346 78.5025 127.446 78.5025C148.546 78.5025 165.648 96.0642 166.121 117.147C166.284 124.338 177.493 124.367 177.33 117.147C176.856 96.227 164.226 77.5556 144.385 70.2765C124.543 62.9973 102.17 69.4332 89.0216 85.4266C75.9026 101.39 73.874 124.412 84.3722 142.314C94.8703 160.216 116.296 169.906 136.892 166.089C160.45 161.725 176.797 140.656 177.33 117.162C177.493 109.957 166.284 109.957 166.121 117.162V117.147Z" fill="#F6AE4C"/>
<path d="M26.4473 225.521C26.4473 225.521 26.551 225.565 26.5954 225.58C26.6694 225.61 26.7434 225.624 26.8027 225.654C27.2173 225.787 27.4542 225.831 26.4325 225.521H26.4473Z" fill="url(#paint0_linear_579_10)"/>
<path d="M250.047 217.842C250.047 217.842 250.195 217.62 250.269 217.413L250.314 217.28C250.314 217.28 250.299 217.324 250.284 217.354C250.21 217.517 250.121 217.68 250.047 217.842V217.842Z" fill="url(#paint1_linear_579_10)"/>
<path d="M250.565 216.762C250.506 216.881 250.447 216.984 250.403 217.073L250.328 217.28C250.403 217.103 250.477 216.925 250.565 216.762V216.762Z" fill="url(#paint2_linear_579_10)"/>
<path d="M242.111 225.58C242.229 225.536 242.348 225.491 242.436 225.432C242.436 225.432 242.288 225.506 242.111 225.58Z" fill="url(#paint3_linear_579_10)"/>
<path d="M248.107 221.023C248.3 220.831 248.463 220.624 248.566 220.417C248.596 220.357 248.3 220.757 248.107 221.023Z" fill="url(#paint4_linear_579_10)"/>
<path d="M250.047 217.842C250.121 217.679 250.21 217.517 250.284 217.354C250.284 217.324 250.299 217.309 250.314 217.28L250.388 217.073C250.092 217.65 250.018 217.842 250.047 217.842V217.842Z" fill="url(#paint5_linear_579_10)"/>
<path d="M250.047 217.842C250.121 217.679 250.21 217.517 250.284 217.354C250.284 217.324 250.299 217.309 250.314 217.28L250.388 217.073C250.092 217.65 250.018 217.842 250.047 217.842V217.842Z" fill="url(#paint6_linear_579_10)"/>
<path d="M245.487 223.523C244.776 223.997 245.102 223.805 245.487 223.523V223.523Z" fill="url(#paint7_linear_579_10)"/>
<path d="M245.487 223.523C244.776 223.997 245.102 223.805 245.487 223.523V223.523Z" fill="url(#paint8_linear_579_10)"/>
<path d="M20.0359 220.417C20.0359 220.417 20.1099 220.52 20.1988 220.653C20.1247 220.579 20.0655 220.49 20.0359 220.417Z" fill="url(#paint9_linear_579_10)"/>
<path d="M263.61 21.1717C260.234 8.59592 248.478 0 235.581 0C232.693 0 229.806 0 226.933 0H34.754C34.0581 0 33.3622 0 32.6811 0C25.5293 0.0443851 18.8218 2.70749 13.4616 7.39752C7.45002 12.6793 4.05923 20.6539 4 28.5988C4 29.2054 4 29.7972 4 30.4038V210.489C4 213.463 4.29614 216.481 5.16975 219.336C7.50925 227.089 13.2099 233.924 20.6726 237.209C24.6409 238.955 28.7276 239.872 33.0809 239.872C34.1173 239.872 35.1686 239.872 36.2051 239.872H207.033V226.793H35.8498C34.8873 226.793 33.9397 226.793 32.9772 226.793C32.7403 226.793 32.5034 226.793 32.2813 226.793C31.8223 226.793 31.3633 226.764 30.9042 226.734C30.8598 226.734 30.8006 226.734 30.7117 226.719C30.4304 226.675 29.927 226.586 29.7937 226.556C29.3051 226.453 28.8165 226.335 28.3426 226.201C27.8244 226.053 27.321 225.861 26.8175 225.669C26.7435 225.639 26.6694 225.624 26.6102 225.595C26.4621 225.55 26.3141 225.491 26.166 225.447C26.2697 225.476 26.3733 225.506 26.4621 225.536C26.3881 225.506 26.3141 225.476 26.24 225.447C25.8551 225.254 25.4701 225.047 25.0851 224.84C24.404 224.456 23.7525 224.012 23.1158 223.568H23.0862C22.7308 223.228 22.3606 222.917 22.0053 222.577C21.4574 222.059 20.9392 221.511 20.4505 220.934C20.4209 220.905 20.3913 220.875 20.3617 220.831C20.1544 220.535 19.9323 220.224 19.725 219.913C19.2808 219.233 18.881 218.523 18.5108 217.798C18.4664 217.724 18.3776 217.502 18.2739 217.295C18.1703 217.014 18.0222 216.629 17.9778 216.496C17.726 215.756 17.5187 215.016 17.3559 214.262C17.3115 214.04 17.267 213.27 17.1486 213.004C17.0745 211.969 17.0745 210.918 17.0745 209.882V52.1377C18.2887 52.6703 19.6361 52.9662 21.0428 52.9662H248.581C249.603 52.9662 250.58 52.8183 251.498 52.5224V180.736H264.588V33.4072C264.588 29.2794 264.691 25.2255 263.61 21.1717V21.1717ZM20.1988 220.653C20.11 220.52 20.0359 220.431 20.0359 220.416C20.0655 220.49 20.1248 220.564 20.1988 220.653ZM175.006 38.837H148.027V14.6767H175.006V38.837ZM208.425 38.837H181.447V14.6767H208.425V38.837ZM242.436 38.837H215.458V14.6767H242.436V38.837Z" fill="url(#paint10_linear_579_10)"/>
</g>
<g filter="url(#filter1_d_579_10)">
<path d="M230.342 145.998L180.083 174.352V211.867V227.993V231.059L230.342 259.412L280.613 231.059V223.049V211.867V174.352L230.342 145.998Z" fill="#0F142C"/>
<path d="M230.295 261.076L180 232.057V211.118H193.998V223.988L230.295 244.926L266.604 223.988V211.118H280.602V232.057L230.295 261.076Z" fill="#F29224"/>
<path d="M193.998 195.742H180V174.019L230.295 145L280.602 174.019V191.38H266.604V182.1L230.295 161.161L193.998 182.1V195.742Z" fill="#F29224"/>
<path d="M235.778 217.239H217.867L205.653 202.349H223.575L235.778 217.239Z" fill="#F29224"/>
<path d="M259.86 185.867L236.027 217.239H218.117L241.938 185.867H259.86Z" fill="#FFFFFB"/>
</g>
<defs>
<filter id="filter0_d_579_10" x="0" y="0" width="268.59" height="247.872" filterUnits="userSpaceOnUse" color-interpolation-filters="sRGB">
<feFlood flood-opacity="0" result="BackgroundImageFix"/>
<feColorMatrix in="SourceAlpha" type="matrix" values="0 0 0 0 0 0 0 0 0 0 0 0 0 0 0 0 0 0 127 0" result="hardAlpha"/>
<feOffset dy="4"/>
<feGaussianBlur stdDeviation="2"/>
<feComposite in2="hardAlpha" operator="out"/>
<feColorMatrix type="matrix" values="0 0 0 0 0 0 0 0 0 0 0 0 0 0 0 0 0 0 0.25 0"/>
<feBlend mode="normal" in2="BackgroundImageFix" result="effect1_dropShadow_579_10"/>
<feBlend mode="normal" in="SourceGraphic" in2="effect1_dropShadow_579_10" result="shape"/>
</filter>
<filter id="filter1_d_579_10" x="176" y="145" width="108.613" height="124.076" filterUnits="userSpaceOnUse" color-interpolation-filters="sRGB">
<feFlood flood-opacity="0" result="BackgroundImageFix"/>
<feColorMatrix in="SourceAlpha" type="matrix" values="0 0 0 0 0 0 0 0 0 0 0 0 0 0 0 0 0 0 127 0" result="hardAlpha"/>
<feOffset dy="4"/>
<feGaussianBlur stdDeviation="2"/>
<feComposite in2="hardAlpha" operator="out"/>
<feColorMatrix type="matrix" values="0 0 0 0 0 0 0 0 0 0 0 0 0 0 0 0 0 0 0.25 0"/>
<feBlend mode="normal" in2="BackgroundImageFix" result="effect1_dropShadow_579_10"/>
<feBlend mode="normal" in="SourceGraphic" in2="effect1_dropShadow_579_10" result="shape"/>
</filter>
<linearGradient id="paint0_linear_579_10" x1="26.4473" y1="225.639" x2="27.1876" y2="225.639" gradientUnits="userSpaceOnUse">
<stop stop-color="#E98924"/>
<stop offset="1" stop-color="#F8BB5D"/>
</linearGradient>
<linearGradient id="paint1_linear_579_10" x1="181.221" y1="217.561" x2="316.696" y2="217.561" gradientUnits="userSpaceOnUse">
<stop stop-color="#E98924"/>
<stop offset="1" stop-color="#F8BB5D"/>
</linearGradient>
<linearGradient id="paint2_linear_579_10" x1="181.223" y1="217.014" x2="316.695" y2="217.014" gradientUnits="userSpaceOnUse">
<stop stop-color="#E98924"/>
<stop offset="1" stop-color="#F8BB5D"/>
</linearGradient>
<linearGradient id="paint3_linear_579_10" x1="181.224" y1="225.506" x2="316.694" y2="225.506" gradientUnits="userSpaceOnUse">
<stop stop-color="#E98924"/>
<stop offset="1" stop-color="#F8BB5D"/>
</linearGradient>
<linearGradient id="paint4_linear_579_10" x1="181.225" y1="220.712" x2="316.693" y2="220.712" gradientUnits="userSpaceOnUse">
<stop stop-color="#E98924"/>
<stop offset="1" stop-color="#F8BB5D"/>
</linearGradient>
<linearGradient id="paint5_linear_579_10" x1="250.047" y1="217.457" x2="250.403" y2="217.457" gradientUnits="userSpaceOnUse">
<stop stop-color="#E98924"/>
<stop offset="1" stop-color="#F8BB5D"/>
</linearGradient>
<linearGradient id="paint6_linear_579_10" x1="181.226" y1="217.457" x2="316.692" y2="217.457" gradientUnits="userSpaceOnUse">
<stop stop-color="#E98924"/>
<stop offset="1" stop-color="#F8BB5D"/>
</linearGradient>
<linearGradient id="paint7_linear_579_10" x1="245.072" y1="223.657" x2="245.487" y2="223.657" gradientUnits="userSpaceOnUse">
<stop stop-color="#E98924"/>
<stop offset="1" stop-color="#F8BB5D"/>
</linearGradient>
<linearGradient id="paint8_linear_579_10" x1="181.224" y1="223.657" x2="316.693" y2="223.657" gradientUnits="userSpaceOnUse">
<stop stop-color="#E98924"/>
<stop offset="1" stop-color="#F8BB5D"/>
</linearGradient>
<linearGradient id="paint9_linear_579_10" x1="4.00001" y1="220.535" x2="264.602" y2="220.535" gradientUnits="userSpaceOnUse">
<stop stop-color="#E98924"/>
<stop offset="1" stop-color="#F8BB5D"/>
</linearGradient>
<linearGradient id="paint10_linear_579_10" x1="4" y1="119.929" x2="264.602" y2="119.929" gradientUnits="userSpaceOnUse">
<stop stop-color="#E98924"/>
<stop offset="1" stop-color="#F8BB5D"/>
</linearGradient>
</defs>
</svg>
